<?xml version="1.0" standalone="no"?>
<!DOCTYPE svg PUBLIC "-//W3C//DTD SVG 20010904//EN"
 "http://www.w3.org/TR/2001/REC-SVG-20010904/DTD/svg10.dtd">
<svg version="1.0" xmlns="http://www.w3.org/2000/svg"
 width="729.000000pt" height="602.000000pt" viewBox="0 0 729.000000 602.000000"
 preserveAspectRatio="xMidYMid meet">

<g transform="translate(0.000000,602.000000) scale(0.100000,-0.100000)"
fill="#000000" stroke="none">
<path d="M2215 5701 c-68 -31 -115 -96 -115 -157 0 -13 -6 -24 -13 -24 -47 0
-74 -88 -57 -183 10 -54 63 -169 87 -189 11 -9 12 -7 3 16 -18 49 -14 59 23
53 32 -5 34 -4 50 41 19 53 21 89 8 126 -10 24 -6 23 76 -21 68 -35 93 -43
117 -39 41 8 52 21 36 41 -11 14 -8 16 26 15 21 0 58 2 80 6 38 5 43 3 63 -25
12 -17 26 -31 31 -31 13 0 59 89 49 96 -5 3 -16 20 -23 39 -9 21 -23 35 -38
38 l-23 4 23 8 c40 13 20 75 -26 75 -51 0 -97 20 -150 63 -82 68 -153 83 -227
48z"/>
<path d="M2470 4994 c-14 -2 -73 -6 -132 -9 l-106 -7 -92 -118 c-85 -109 -104
-127 -255 -240 -96 -72 -174 -138 -189 -160 -62 -94 -76 -215 -73 -656 l2
-361 28 -41 c32 -50 34 -80 6 -116 l-21 -26 21 -33 c11 -18 31 -43 44 -55 24
-22 24 -24 8 -67 -12 -35 -13 -51 -4 -74 10 -28 6 -35 -104 -173 -287 -360
-458 -675 -440 -810 3 -21 23 -69 45 -106 83 -140 452 -649 774 -1070 l87
-112 101 114 100 114 -51 119 c-74 170 -218 451 -295 573 -56 90 -122 182
-199 276 -19 24 -19 24 0 38 11 8 148 109 305 225 157 115 288 207 291 203 11
-12 31 -655 24 -754 -8 -103 -25 -154 -58 -180 l-22 -17 55 -56 c50 -50 53
-57 42 -76 -18 -29 -31 -156 -45 -439 l-12 -245 -32 -14 c-24 -11 -34 -24 -43
-57 -7 -24 -21 -51 -32 -61 -31 -28 -50 -72 -50 -118 -1 -42 18 -105 31 -105
4 0 38 22 76 50 l69 50 133 0 c73 0 133 4 133 9 0 4 25 163 55 352 154 956
198 1273 189 1372 -6 74 12 205 72 522 33 171 30 165 63 165 46 0 64 30 56 92
-23 186 -61 453 -90 637 -19 118 -33 216 -31 218 2 2 31 -50 65 -115 85 -164
157 -272 182 -272 23 0 24 -17 4 -44 -23 -30 -18 -45 19 -63 42 -20 54 -45 62
-133 l7 -69 36 25 c19 13 74 38 121 55 l86 30 -30 87 c-22 67 -29 107 -30 170
l-1 84 -37 19 c-42 21 -43 25 -27 99 13 63 6 100 -20 100 -37 0 -61 46 -61
119 0 82 -24 170 -89 328 -80 193 -129 286 -212 396 -96 129 -151 179 -222
206 -81 30 -124 61 -191 141 -33 39 -62 69 -65 69 -3 -1 -17 -3 -31 -5z m-406
-2268 c8 -18 19 -36 24 -40 6 -3 13 -20 17 -37 21 -95 -97 -159 -166 -90 -23
24 -29 38 -29 75 0 24 -5 57 -10 72 -6 15 -8 29 -5 32 7 8 75 20 117 21 34 1
39 -3 52 -33z"/>
<path d="M4113 2513 c-7 -2 -13 -13 -13 -24 0 -18 12 -19 364 -19 243 0 367 3
371 10 4 6 1 17 -5 25 -11 13 -67 15 -359 14 -190 0 -352 -3 -358 -6z"/>
<path d="M4110 2272 c0 -5 -16 -34 -35 -66 -19 -32 -35 -60 -35 -63 0 -4 25 2
58 14 9 4 12 -36 12 -181 0 -117 4 -186 10 -186 6 0 10 69 10 186 0 145 3 185
13 181 59 -22 59 -23 19 52 -33 63 -52 86 -52 63z"/>
<path d="M4647 1913 c-4 -3 -7 -15 -7 -25 0 -17 18 -18 364 -18 243 0 367 3
371 10 4 6 1 17 -5 25 -11 13 -68 15 -365 15 -193 0 -355 -3 -358 -7z"/>
<path d="M4660 1735 c-5 -13 -21 -43 -35 -65 -29 -46 -28 -58 3 -41 41 22 42
17 42 -174 0 -117 4 -185 10 -185 6 0 10 69 10 186 0 145 3 185 13 181 59 -22
59 -23 19 52 -20 39 -40 71 -45 71 -4 0 -12 -11 -17 -25z"/>
<path d="M3507 1623 c-4 -3 -7 -15 -7 -25 0 -17 18 -18 364 -18 243 0 367 3
371 10 4 6 1 17 -5 25 -11 13 -68 15 -365 15 -193 0 -355 -3 -358 -7z"/>
<path d="M3550 1442 c0 -5 -16 -34 -35 -67 -38 -62 -39 -73 -7 -56 41 22 42
17 42 -174 0 -117 4 -185 10 -185 6 0 10 69 10 186 0 145 3 185 13 181 59 -22
59 -23 19 52 -33 63 -52 86 -52 63z"/>
<path d="M4140 1219 c-91 -38 -124 -143 -68 -222 56 -79 188 -76 238 6 39 64
18 162 -44 202 -32 21 -93 28 -126 14z"/>
<path d="M2471 149 c-40 -16 -81 -29 -92 -29 -17 0 -19 -7 -19 -60 l0 -60 215
0 216 0 -16 29 c-21 41 -60 69 -121 87 -29 8 -58 22 -65 30 -27 33 -44 33
-118 3z"/>
</g>
</svg>
